<svg width="452" height="197" viewBox="0 0 452 197" fill="none" xmlns="http://www.w3.org/2000/svg">
<path d="M245.108 530.601C237.983 493.378 221.013 409.612 197.461 324.853C179.003 258.448 160.182 204.444 141.521 164.358C132.954 145.959 124.434 130.509 115.984 118.054C113.833 114.879 111.688 111.898 109.545 109.115C107.307 106.199 105.066 103.499 102.834 101.011C100.5 98.4034 98.1749 96.0374 95.8586 93.9033C93.4177 91.6568 90.9878 89.676 88.5665 87.9555C85.9996 86.1263 83.4392 84.5945 80.8963 83.3629C78.5134 82.2016 76.1428 81.3015 73.7796 80.6662C73.4489 80.5793 73.1219 80.4933 72.79 80.4108L55.9358 76.3603C56.2664 76.4472 56.5983 76.5298 56.9253 76.6157C59.2725 77.2515 61.6232 78.1369 63.9887 79.289L63.9924 79.29C66.5427 80.5236 69.1044 82.051 71.6712 83.8801C74.0937 85.5962 76.5273 87.5781 78.9645 89.8236C81.282 91.9533 83.6104 94.3203 85.9384 96.922C88.1751 99.4058 90.4125 102.106 92.6582 105.023C94.81 107.818 96.9673 110.811 99.1265 114.002C101.203 117.058 103.281 120.298 105.362 123.717C111.76 134.221 118.201 146.421 124.663 160.306C143.331 200.394 162.153 254.399 180.602 320.806C204.074 405.258 221.002 488.727 228.176 526.15L245.108 530.601Z" fill="#171717"/>
<path d="M279.205 539.597C272.172 502.78 255.132 418.416 231.405 333.049C212.953 266.643 194.131 212.644 175.468 172.554C162.426 144.532 149.48 123.359 136.753 109.173C134.43 106.583 132.114 104.228 129.81 102.107C127.368 99.8649 124.94 97.8797 122.516 96.1539C119.949 94.3248 117.393 92.794 114.845 91.5658C112.466 90.4055 110.095 89.5055 107.733 88.8658C107.403 88.7789 107.075 88.6973 106.743 88.6147C103.981 87.9499 101.036 87.5792 97.9058 87.493C100.449 88.7245 103.005 90.2554 105.576 92.0855C107.993 93.8049 110.426 95.791 112.863 98.0365C115.18 100.166 117.511 102.538 119.846 105.142C122.065 107.616 124.29 110.304 126.521 113.203C137.078 126.922 147.768 145.376 158.524 168.485C177.191 208.576 196.013 262.574 214.469 328.982C238.104 414.043 255.108 498.102 262.188 535.124L279.205 539.597Z" fill="#171717"/>
<path d="M313.297 548.594C306.36 512.215 289.242 427.242 265.346 341.237C246.889 274.828 228.067 220.824 209.403 180.737C191.452 142.18 173.689 116.582 156.419 104.313L156.415 104.312C153.856 102.499 151.317 100.978 148.785 99.7489C146.398 98.5866 144.028 97.6866 141.665 97.0513C141.339 96.9609 141.008 96.874 140.675 96.7958L124.231 92.8484C124.394 92.8914 124.558 92.9343 124.724 92.9827C127.083 93.617 129.455 94.5127 131.83 95.6721L131.834 95.673C134.381 96.9056 136.944 98.4428 139.515 100.269C141.926 101.986 144.343 103.954 146.773 106.184C161.733 119.938 177.028 143.508 192.463 176.664C211.13 216.757 229.953 270.756 248.406 337.164C272.211 422.849 289.292 507.517 296.276 544.12L313.297 548.594Z" fill="#171717"/>
<path d="M347.308 557.568C340.474 521.658 323.284 436.053 299.204 349.411C280.752 283.005 261.93 229.006 243.263 188.915C220.163 139.282 197.368 111.128 175.524 105.23C175.202 105.141 174.866 105.057 174.537 104.98C171.794 104.32 168.865 103.949 165.748 103.857C185.415 113.382 205.785 140.571 226.405 184.868C245.071 224.959 263.893 278.958 282.35 345.361C306.338 431.682 323.495 516.974 330.377 553.117L347.308 557.568Z" fill="#171717"/>
<path d="M63.4979 78.8889C61.1325 77.7368 58.7819 76.8514 56.4348 76.2156C56.1078 76.1296 55.7759 76.0471 55.4452 75.9602C33.5706 70.7118 -0.0296776 83.6236 -44.4714 114.374C-80.9139 139.589 -124.543 176.724 -174.15 224.755C-239.663 288.187 -298.546 354.243 -322.105 381.207L-305.52 385.567C-282.142 358.804 -223.055 292.482 -157.292 228.807C-107.689 180.774 -64.0565 143.64 -27.6177 118.425C11.2374 91.5361 41.8125 78.2842 63.4979 78.8889Z" fill="#171717"/>
<path d="M78.5063 89.4648C76.0694 87.2194 73.636 85.2377 71.2138 83.5217C50.3914 86.2216 22.9781 99.276 -10.6345 122.534C-47.0745 147.748 -90.704 184.88 -140.309 232.913C-206.317 296.83 -265.6 363.415 -288.79 389.977L-272.124 394.358C-249.132 368.012 -189.639 301.153 -123.366 236.983C-73.7623 188.954 -30.1354 151.816 6.30471 126.603C34.9573 106.78 59.105 94.3682 78.5063 89.4648Z" fill="#171717"/>
<path d="M92.2411 104.701C89.9959 101.783 87.7587 99.0839 85.5224 96.6003C68.0174 102.757 47.2233 114.149 23.2927 130.713C-13.1442 155.921 -56.7736 193.061 -106.37 241.085C-172.903 305.507 -232.6 372.642 -255.392 398.767L-238.722 403.15C-216.139 377.246 -156.231 309.834 -89.4353 245.152C-39.8354 197.129 3.79286 159.993 40.2309 134.781C59.666 121.338 77.0256 111.296 92.2411 104.701Z" fill="#171717"/>
<path d="M104.99 123.427C102.91 120.008 100.832 116.769 98.7561 113.713C86.1836 120.036 72.3292 128.428 57.2174 138.888C20.7823 164.095 -22.8402 201.23 -72.4402 249.26C-139.506 314.197 -199.624 381.89 -221.998 407.556L-205.411 411.917C-183.256 386.484 -122.921 318.506 -55.5845 253.307C-5.98943 205.28 37.6368 168.146 74.0732 142.934C85.0417 135.341 95.3494 128.841 104.99 123.427Z" fill="#171717"/>
</svg>
