<svg width="253" height="254" viewBox="0 0 253 254" fill="none" xmlns="http://www.w3.org/2000/svg">
<path d="M279.799 147.972C277.2 147.805 274.747 147.415 272.422 146.811C272.1 146.724 271.775 146.633 271.448 146.545C250.12 140.329 227.869 112.646 205.29 64.2081C186.775 24.4903 168.09 -29.0675 149.755 -94.9859C125.541 -182.04 108.311 -268.104 101.684 -303L118.046 -298.616C124.618 -263.983 141.89 -177.589 166.195 -90.2012C184.526 -24.2838 203.214 29.275 221.726 68.9918C241.465 111.343 260.96 137.833 279.799 147.972Z" fill="#171717"/>
<path d="M297.878 146.226C294.67 146.969 291.597 147.486 288.666 147.779C272.219 135.207 255.327 110.441 238.249 73.8033C219.733 34.0856 201.045 -19.4732 182.711 -85.3959C158.315 -173.117 141.005 -259.84 134.492 -294.209L150.935 -289.803C157.387 -255.718 174.739 -168.656 199.234 -80.5843C217.569 -14.6659 236.252 38.8963 254.768 78.614C269.328 109.842 283.75 132.447 297.878 146.226Z" fill="#171717"/>
<path d="M317.201 139.816C313.819 141.235 310.554 142.469 307.397 143.517C295.518 129.586 283.45 109.511 271.293 83.4214C252.776 43.708 234.09 -9.85958 215.758 -75.7726C191.164 -164.194 173.774 -251.599 167.383 -285.396L183.83 -280.989C190.154 -247.486 207.586 -159.737 232.273 -70.9628C250.609 -5.04889 269.297 48.5143 287.812 88.2321C297.69 109.413 307.498 126.632 317.201 139.816Z" fill="#171717"/>
<path d="M337.426 129.899C333.934 131.832 330.535 133.611 327.228 135.233C319.648 123.584 312.01 109.514 304.332 93.0384C285.815 53.325 267.132 -0.237229 248.798 -66.16C224.006 -155.291 206.534 -243.388 200.269 -276.584L216.635 -272.199C222.83 -239.312 240.344 -150.861 265.237 -61.3709C283.568 4.54648 302.255 58.1097 320.771 97.8275C326.343 109.787 331.897 120.477 337.426 129.899Z" fill="#171717"/>
</svg>
