<svg width="384" height="48" viewBox="0 0 384 48" fill="none" xmlns="http://www.w3.org/2000/svg">
<path d="M100.869 41V6.09091H125.21V12.9432H109.306V20.1023H123.966V26.9716H109.306V34.1477H125.21V41H100.869ZM155.316 14.8182L146.333 41H136.787L127.821 14.8182H136.6L141.424 32.8523H141.696L146.537 14.8182H155.316ZM164.613 41.4432C162.943 41.4432 161.46 41.1648 160.164 40.608C158.88 40.0398 157.863 39.1875 157.113 38.0511C156.375 36.9034 156.005 35.4659 156.005 33.7386C156.005 32.2841 156.261 31.0568 156.772 30.0568C157.284 29.0568 157.988 28.2443 158.886 27.6193C159.784 26.9943 160.818 26.5227 161.988 26.2045C163.159 25.875 164.409 25.6534 165.738 25.5398C167.227 25.4034 168.426 25.2614 169.335 25.1136C170.244 24.9545 170.903 24.733 171.312 24.4489C171.733 24.1534 171.943 23.7386 171.943 23.2045V23.1193C171.943 22.2443 171.642 21.5682 171.039 21.0909C170.437 20.6136 169.625 20.375 168.602 20.375C167.5 20.375 166.613 20.6136 165.943 21.0909C165.272 21.5682 164.846 22.2273 164.664 23.0682L156.977 22.7955C157.204 21.2045 157.789 19.7841 158.733 18.5341C159.687 17.2727 160.994 16.2841 162.653 15.5682C164.324 14.8409 166.329 14.4773 168.67 14.4773C170.341 14.4773 171.88 14.6761 173.289 15.0739C174.699 15.4602 175.926 16.0284 176.971 16.7784C178.017 17.517 178.824 18.4261 179.392 19.5057C179.971 20.5852 180.261 21.8182 180.261 23.2045V41H172.42V37.3523H172.216C171.75 38.2386 171.153 38.9886 170.426 39.6023C169.71 40.2159 168.863 40.6761 167.886 40.983C166.92 41.2898 165.829 41.4432 164.613 41.4432ZM167.187 35.9886C168.085 35.9886 168.892 35.8068 169.608 35.4432C170.335 35.0795 170.914 34.5795 171.346 33.9432C171.778 33.2955 171.994 32.5455 171.994 31.6932V29.2045C171.755 29.3295 171.466 29.4432 171.125 29.5455C170.795 29.6477 170.431 29.7443 170.034 29.8352C169.636 29.9261 169.227 30.0057 168.806 30.0739C168.386 30.142 167.983 30.2045 167.596 30.2614C166.812 30.3864 166.142 30.5795 165.585 30.8409C165.039 31.1023 164.619 31.4432 164.324 31.8636C164.039 32.2727 163.897 32.7614 163.897 33.3295C163.897 34.1932 164.204 34.8523 164.818 35.3068C165.443 35.7614 166.233 35.9886 167.187 35.9886ZM193.117 6.09091V41H184.782V6.09091H193.117ZM214.738 29.6989V14.8182H223.056V41H215.113V36.125H214.841C214.261 37.7273 213.272 39 211.875 39.9432C210.488 40.875 208.812 41.3409 206.846 41.3409C205.062 41.3409 203.494 40.9318 202.142 40.1136C200.789 39.2955 199.738 38.1534 198.988 36.6875C198.238 35.2102 197.858 33.483 197.846 31.5057V14.8182H206.181V29.8693C206.193 31.2898 206.568 32.4091 207.306 33.2273C208.045 34.0455 209.051 34.4545 210.324 34.4545C211.153 34.4545 211.897 34.2727 212.556 33.9091C213.227 33.5341 213.755 32.9943 214.142 32.2898C214.539 31.5739 214.738 30.7102 214.738 29.6989ZM232.473 41.4943C231.246 41.4943 230.195 41.0625 229.32 40.1989C228.456 39.3352 228.03 38.2898 228.042 37.0625C228.03 35.858 228.456 34.8295 229.32 33.9773C230.195 33.1136 231.246 32.6818 232.473 32.6818C233.632 32.6818 234.655 33.1136 235.542 33.9773C236.439 34.8295 236.894 35.858 236.905 37.0625C236.894 37.8807 236.678 38.625 236.257 39.2955C235.848 39.9659 235.309 40.5 234.638 40.8977C233.979 41.2955 233.257 41.4943 232.473 41.4943ZM249.216 41.4432C247.545 41.4432 246.062 41.1648 244.767 40.608C243.483 40.0398 242.466 39.1875 241.716 38.0511C240.977 36.9034 240.608 35.4659 240.608 33.7386C240.608 32.2841 240.863 31.0568 241.375 30.0568C241.886 29.0568 242.591 28.2443 243.488 27.6193C244.386 26.9943 245.42 26.5227 246.591 26.2045C247.761 25.875 249.011 25.6534 250.341 25.5398C251.829 25.4034 253.028 25.2614 253.937 25.1136C254.846 24.9545 255.505 24.733 255.914 24.4489C256.335 24.1534 256.545 23.7386 256.545 23.2045V23.1193C256.545 22.2443 256.244 21.5682 255.642 21.0909C255.039 20.6136 254.227 20.375 253.204 20.375C252.102 20.375 251.216 20.6136 250.545 21.0909C249.875 21.5682 249.448 22.2273 249.267 23.0682L241.579 22.7955C241.806 21.2045 242.392 19.7841 243.335 18.5341C244.289 17.2727 245.596 16.2841 247.255 15.5682C248.926 14.8409 250.931 14.4773 253.272 14.4773C254.943 14.4773 256.483 14.6761 257.892 15.0739C259.301 15.4602 260.528 16.0284 261.573 16.7784C262.619 17.517 263.426 18.4261 263.994 19.5057C264.573 20.5852 264.863 21.8182 264.863 23.2045V41H257.022V37.3523H256.818C256.352 38.2386 255.755 38.9886 255.028 39.6023C254.312 40.2159 253.466 40.6761 252.488 40.983C251.522 41.2898 250.431 41.4432 249.216 41.4432ZM251.789 35.9886C252.687 35.9886 253.494 35.8068 254.21 35.4432C254.937 35.0795 255.517 34.5795 255.948 33.9432C256.38 33.2955 256.596 32.5455 256.596 31.6932V29.2045C256.358 29.3295 256.068 29.4432 255.727 29.5455C255.397 29.6477 255.034 29.7443 254.636 29.8352C254.238 29.9261 253.829 30.0057 253.409 30.0739C252.988 30.142 252.585 30.2045 252.198 30.2614C251.414 30.3864 250.744 30.5795 250.187 30.8409C249.642 31.1023 249.221 31.4432 248.926 31.8636C248.642 32.2727 248.5 32.7614 248.5 33.3295C248.5 34.1932 248.806 34.8523 249.42 35.3068C250.045 35.7614 250.835 35.9886 251.789 35.9886ZM284.162 14.8182V20.9545H267.645V14.8182H284.162ZM271.105 8.54545H279.441V32.767C279.441 33.2784 279.52 33.6932 279.679 34.0114C279.85 34.3182 280.094 34.5398 280.412 34.6761C280.73 34.8011 281.111 34.8636 281.554 34.8636C281.873 34.8636 282.208 34.8352 282.56 34.7784C282.924 34.7102 283.196 34.6534 283.378 34.608L284.64 40.625C284.242 40.7386 283.679 40.8807 282.952 41.0511C282.236 41.2216 281.378 41.3295 280.378 41.375C278.424 41.4659 276.748 41.2386 275.35 40.6932C273.963 40.1364 272.901 39.2727 272.162 38.1023C271.435 36.9318 271.083 35.4602 271.105 33.6875V8.54545Z" fill="#0F172A"/>
<mask id="mask0_768_2754" style="mask-type:luminance" maskUnits="userSpaceOnUse" x="29" y="4" width="41" height="40">
<path d="M69.8083 4H29.1904V44H69.8083V4Z" fill="white"/>
</mask>
<g mask="url(#mask0_768_2754)">
<path fill-rule="evenodd" clip-rule="evenodd" d="M56.0258 36.9074C54.0551 40.1422 51.6718 41.6 49.4994 41.6C47.3268 41.6 44.9436 40.1422 42.9728 36.9074C41.031 33.7204 39.7511 29.1626 39.7511 24C39.7511 18.8373 41.031 14.2796 42.9728 11.0927C44.9436 7.8579 47.3268 6.4 49.4994 6.4C51.6718 6.4 54.0551 7.8579 56.0258 11.0927C57.9676 14.2796 59.2476 18.8373 59.2476 24C59.2476 29.1626 57.9676 33.7204 56.0258 36.9074ZM69.8083 24C69.8083 12.9543 60.7156 4 49.4994 4C38.283 4 29.1904 12.9543 29.1904 24C29.1904 35.0456 38.283 44 49.4994 44C60.7156 44 69.8083 35.0456 69.8083 24ZM31.6275 24C31.6275 31.186 36.0005 37.366 42.2688 40.1C39.2633 36.4578 37.314 30.6026 37.314 24C37.314 17.3975 39.2633 11.5422 42.2688 7.8999C36.0005 10.634 31.6275 16.8141 31.6275 24ZM67.3712 24C67.3712 31.186 62.9981 37.366 56.7299 40.1C59.7355 36.4578 61.6847 30.6026 61.6847 24C61.6847 17.3975 59.7355 11.5422 56.7299 7.8999C62.9981 10.634 67.3712 16.8141 67.3712 24ZM49.4994 26.2C50.7331 26.2 51.7333 25.215 51.7333 24C51.7333 22.785 50.7331 21.8 49.4994 21.8C48.2656 21.8 47.2654 22.785 47.2654 24C47.2654 25.215 48.2656 26.2 49.4994 26.2Z" fill="#3D3D3D"/>
</g>
</svg>
